<svg width="415" height="396" viewBox="0 0 415 396" fill="none" xmlns="http://www.w3.org/2000/svg">
<g opacity="0.82">
<rect width="415" height="396" fill="#2C2E45"/>
<path d="M112.401 181.15H122.001C122.735 181.15 123.101 181.517 123.101 182.25V214.35C123.101 215.083 123.451 215.45 124.151 215.45H140.501C140.935 215.483 141.135 215.717 141.101 216.15C140.868 217.117 140.168 218.05 139.001 218.95C137.835 219.85 136.018 220.3 133.551 220.3H116.601C115.168 220.3 114.451 219.633 114.451 218.3V188C114.451 185.533 113.301 183.6 111.001 182.2V181.95C111.201 181.417 111.668 181.15 112.401 181.15ZM143.346 206.55C143.346 204.417 143.663 202.467 144.296 200.7C144.963 198.933 145.913 197.417 147.146 196.15C148.413 194.883 149.946 193.9 151.746 193.2C153.546 192.467 155.596 192.1 157.896 192.1C160.196 192.1 162.246 192.467 164.046 193.2C165.846 193.9 167.363 194.883 168.596 196.15C169.863 197.417 170.813 198.933 171.446 200.7C172.113 202.467 172.446 204.417 172.446 206.55C172.446 208.683 172.113 210.633 171.446 212.4C170.813 214.167 169.863 215.683 168.596 216.95C167.363 218.217 165.846 219.2 164.046 219.9C162.246 220.633 160.196 221 157.896 221C155.596 221 153.546 220.633 151.746 219.9C149.946 219.2 148.413 218.217 147.146 216.95C145.913 215.683 144.963 214.167 144.296 212.4C143.663 210.633 143.346 208.683 143.346 206.55ZM151.846 206.55C151.846 209.717 152.38 212.2 153.446 214C154.513 215.767 155.996 216.65 157.896 216.65C159.796 216.65 161.28 215.767 162.346 214C163.413 212.2 163.946 209.717 163.946 206.55C163.946 203.383 163.413 200.917 162.346 199.15C161.28 197.35 159.796 196.45 157.896 196.45C155.996 196.45 154.513 197.35 153.446 199.15C152.38 200.917 151.846 203.383 151.846 206.55ZM193.499 192.55C200.399 192.55 204.433 195.317 205.599 200.85C205.733 201.783 205.799 202.55 205.799 203.15C205.833 203.75 205.649 204.083 205.249 204.15H200.149C199.883 204.017 199.716 203.783 199.649 203.45C199.149 199.183 197.099 197.017 193.499 196.95C189.499 197.383 187.466 200.767 187.399 207.1C187.399 211.867 189.349 214.783 193.249 215.85C197.149 216.883 200.499 216.017 203.299 213.25C203.533 213.183 203.749 213.2 203.949 213.3C204.416 213.633 204.866 214.1 205.299 214.7C205.533 214.933 205.583 215.2 205.449 215.5C202.583 219.2 198.533 221.05 193.299 221.05C187.866 220.95 184.066 219.4 181.899 216.4C179.766 213.367 178.816 209.983 179.049 206.25C179.883 197.25 184.699 192.683 193.499 192.55ZM220.111 179.5C220.378 179.567 220.494 179.75 220.461 180.05V205.15L227.311 197.6C227.811 196 227.011 194.85 224.911 194.15V193.95C225.011 193.55 225.261 193.3 225.661 193.2H238.011C238.411 193.267 238.661 193.517 238.761 193.95V194.15C237.794 194.383 236.811 194.95 235.811 195.85L228.661 203.35V203.6C233.728 212.133 236.794 216.817 237.861 217.65C238.728 218.417 239.761 219 240.961 219.4V219.8C240.961 219.967 240.778 220.15 240.411 220.35H236.361C231.861 220.35 228.628 218.283 226.661 214.15C224.928 211.217 223.861 209.367 223.461 208.6C223.294 208.6 222.294 209.633 220.461 211.7V212.65C220.461 216.95 218.011 219.45 213.111 220.15C212.744 220.217 212.561 220.033 212.561 219.6V187C212.561 185.167 211.511 183.683 209.411 182.55C209.378 181.95 209.711 181.567 210.411 181.4L220.111 179.5ZM255.15 196.25C253.984 196.25 252.95 196.867 252.05 198.1C251.15 199.3 250.7 201.35 250.7 204.25H260.65C260.75 201.717 260.267 199.75 259.2 198.35C258.134 196.917 256.784 196.217 255.15 196.25ZM255.2 192.5C261.7 192.5 266.034 195.517 268.2 201.55C268.834 203.517 269.034 205.6 268.8 207.8C268.834 208.533 268.534 208.9 267.9 208.9L250.85 209C250.617 208.933 250.534 209.067 250.6 209.4C250.634 213 252.45 215.167 256.05 215.9C259.65 216.633 263.034 215.867 266.2 213.6C266.3 213.5 266.417 213.483 266.55 213.55C266.95 213.85 267.4 214.3 267.9 214.9C268.1 215.1 268.134 215.283 268 215.45C264.534 219.35 260.284 221.167 255.25 220.9C249.017 220.667 244.784 217.583 242.55 211.65C242.25 210.283 242.1 209.05 242.1 207.95V206C243.167 197.1 247.534 192.6 255.2 192.5ZM301.066 179.25H301.516C301.85 179.317 302.05 179.5 302.116 179.8V219C302.116 220.033 301.583 220.55 300.516 220.55H286.316C281.65 220.55 278.3 217.767 276.266 212.2C275.9 210.4 275.716 208.917 275.716 207.75V205.2C275.716 199.1 278.1 194.967 282.866 192.8C284.333 192.3 285.816 192.05 287.316 192.05C290.05 192.05 292.25 192.817 293.916 194.35V187.95C293.916 185.583 292.816 183.7 290.616 182.3V182.15C290.616 181.517 290.95 181.167 291.616 181.1L301.066 179.25ZM284.016 206.8C284.016 213.1 285.9 216.25 289.666 216.25H293.516C293.783 216.25 293.916 216.133 293.916 215.9V198.6C292.916 197.2 291.433 196.5 289.466 196.5H288.866C285.633 196.5 284.016 199.933 284.016 206.8Z" fill="#ADD8FF"/>
</g>
</svg>
